<?xml version="1.0" standalone="no"?>
<!DOCTYPE svg PUBLIC "-//W3C//DTD SVG 20010904//EN"
 "http://www.w3.org/TR/2001/REC-SVG-20010904/DTD/svg10.dtd">
<svg version="1.0" xmlns="http://www.w3.org/2000/svg"
 width="440.000000pt" height="440.000000pt" viewBox="0 0 440.000000 440.000000"
 preserveAspectRatio="xMidYMid meet">
<metadata>
Created by potrace 1.11, written by Peter Selinger 2001-2013
</metadata>
<g transform="translate(0.000000,440.000000) scale(0.100000,-0.100000)"
fill="#000000" stroke="none">
<path d="M225 3380 c-57 -13 -105 -43 -148 -90 -79 -88 -75 -26 -73 -1110 l1
-965 23 -47 c30 -60 111 -134 165 -150 33 -10 478 -13 2012 -13 1927 0 1971 0
2010 19 72 35 113 75 146 141 l31 64 0 959 c0 726 -3 968 -12 999 -20 67 -77
133 -145 167 l-60 31 -1960 1 c-1078 1 -1973 -2 -1990 -6z"/>
</g>
</svg>
